<mxfile host="Electron" modified="2023-05-27T17:31:58.975Z" agent="Mozilla/5.0 (Windows NT 10.0; Win64; x64) AppleWebKit/537.36 (KHTML, like Gecko) draw.io/21.2.8 Chrome/112.0.5615.165 Electron/24.2.0 Safari/537.36" etag="ixdyzbNZfh91OU2csjLn" version="21.2.8" type="device">
  <diagram name="ページ1" id="ldUon2Fn1UpaLDxJtG1j">
    <mxGraphModel dx="567" dy="328" grid="1" gridSize="10" guides="1" tooltips="1" connect="1" arrows="1" fold="1" page="1" pageScale="1" pageWidth="827" pageHeight="1169" math="0" shadow="0">
      <root>
        <mxCell id="0" />
        <mxCell id="1" parent="0" />
        <mxCell id="GEG1RvF2grD1vGv5HLdB-79" value="" style="rounded=0;whiteSpace=wrap;html=1;" parent="1" vertex="1">
          <mxGeometry x="170" y="610" width="130" height="110" as="geometry" />
        </mxCell>
        <mxCell id="GEG1RvF2grD1vGv5HLdB-78" value="" style="rounded=0;whiteSpace=wrap;html=1;" parent="1" vertex="1">
          <mxGeometry x="480" y="640" width="80" height="80" as="geometry" />
        </mxCell>
        <mxCell id="GEG1RvF2grD1vGv5HLdB-68" value="" style="endArrow=none;html=1;rounded=0;fillColor=#d5e8d4;strokeColor=#82b366;strokeWidth=3;" parent="1" source="GEG1RvF2grD1vGv5HLdB-72" edge="1">
          <mxGeometry width="50" height="50" relative="1" as="geometry">
            <mxPoint x="240" y="700" as="sourcePoint" />
            <mxPoint x="240" y="640" as="targetPoint" />
          </mxGeometry>
        </mxCell>
        <mxCell id="GEG1RvF2grD1vGv5HLdB-28" value="" style="endArrow=none;html=1;rounded=0;fillColor=#d5e8d4;strokeColor=#82b366;strokeWidth=5;" parent="1" edge="1">
          <mxGeometry width="50" height="50" relative="1" as="geometry">
            <mxPoint x="379.86" y="830" as="sourcePoint" />
            <mxPoint x="380" y="740" as="targetPoint" />
          </mxGeometry>
        </mxCell>
        <mxCell id="GEG1RvF2grD1vGv5HLdB-26" value="" style="endArrow=none;html=1;rounded=0;fillColor=#d5e8d4;strokeColor=#82b366;strokeWidth=5;" parent="1" edge="1">
          <mxGeometry width="50" height="50" relative="1" as="geometry">
            <mxPoint x="500" y="919.81" as="sourcePoint" />
            <mxPoint x="540" y="920" as="targetPoint" />
            <Array as="points" />
          </mxGeometry>
        </mxCell>
        <mxCell id="GEG1RvF2grD1vGv5HLdB-23" value="" style="endArrow=none;html=1;rounded=0;fillColor=#d5e8d4;strokeColor=#82b366;strokeWidth=5;" parent="1" edge="1">
          <mxGeometry width="50" height="50" relative="1" as="geometry">
            <mxPoint x="379.8" y="900" as="sourcePoint" />
            <mxPoint x="380" y="860" as="targetPoint" />
          </mxGeometry>
        </mxCell>
        <mxCell id="GEG1RvF2grD1vGv5HLdB-4" value="" style="endArrow=none;html=1;rounded=0;strokeWidth=5;fillColor=#d5e8d4;strokeColor=#82b366;" parent="1" edge="1">
          <mxGeometry width="50" height="50" relative="1" as="geometry">
            <mxPoint x="210" y="1010" as="sourcePoint" />
            <mxPoint x="260" y="920" as="targetPoint" />
            <Array as="points">
              <mxPoint x="230" y="1010" />
              <mxPoint x="230" y="920" />
            </Array>
          </mxGeometry>
        </mxCell>
        <mxCell id="GEG1RvF2grD1vGv5HLdB-6" value="" style="endArrow=none;html=1;rounded=0;strokeWidth=5;fillColor=#d5e8d4;strokeColor=#82b366;" parent="1" edge="1">
          <mxGeometry width="50" height="50" relative="1" as="geometry">
            <mxPoint x="210" y="960.24" as="sourcePoint" />
            <mxPoint x="230" y="960" as="targetPoint" />
          </mxGeometry>
        </mxCell>
        <mxCell id="GEG1RvF2grD1vGv5HLdB-9" value="" style="endArrow=none;html=1;rounded=0;fillColor=#d5e8d4;strokeColor=#82b366;strokeWidth=5;" parent="1" edge="1">
          <mxGeometry width="50" height="50" relative="1" as="geometry">
            <mxPoint x="300" y="920" as="sourcePoint" />
            <mxPoint x="350" y="920" as="targetPoint" />
            <Array as="points">
              <mxPoint x="300" y="920" />
              <mxPoint x="310" y="920" />
            </Array>
          </mxGeometry>
        </mxCell>
        <mxCell id="GEG1RvF2grD1vGv5HLdB-12" value="" style="endArrow=none;html=1;rounded=0;fillColor=#d5e8d4;strokeColor=#82b366;strokeWidth=5;" parent="1" edge="1">
          <mxGeometry width="50" height="50" relative="1" as="geometry">
            <mxPoint x="410" y="920" as="sourcePoint" />
            <mxPoint x="480" y="920" as="targetPoint" />
            <Array as="points" />
          </mxGeometry>
        </mxCell>
        <mxCell id="GEG1RvF2grD1vGv5HLdB-1" value="外部電源" style="rounded=0;whiteSpace=wrap;html=1;" parent="1" vertex="1">
          <mxGeometry x="540" y="900" width="80" height="40" as="geometry" />
        </mxCell>
        <mxCell id="GEG1RvF2grD1vGv5HLdB-2" value="バッテリー１" style="rounded=0;whiteSpace=wrap;html=1;" parent="1" vertex="1">
          <mxGeometry x="130" y="940" width="80" height="40" as="geometry" />
        </mxCell>
        <mxCell id="GEG1RvF2grD1vGv5HLdB-3" value="バッテリー２" style="rounded=0;whiteSpace=wrap;html=1;" parent="1" vertex="1">
          <mxGeometry x="130" y="990" width="80" height="40" as="geometry" />
        </mxCell>
        <mxCell id="GEG1RvF2grD1vGv5HLdB-10" value="内部給電&lt;br&gt;ブレーカー" style="text;html=1;strokeColor=none;fillColor=none;align=center;verticalAlign=middle;whiteSpace=wrap;rounded=0;" parent="1" vertex="1">
          <mxGeometry x="240" y="930" width="80" height="40" as="geometry" />
        </mxCell>
        <mxCell id="GEG1RvF2grD1vGv5HLdB-11" value="LTC" style="rounded=1;whiteSpace=wrap;html=1;" parent="1" vertex="1">
          <mxGeometry x="350" y="900" width="60" height="40" as="geometry" />
        </mxCell>
        <mxCell id="GEG1RvF2grD1vGv5HLdB-13" value="" style="endArrow=none;html=1;rounded=0;" parent="1" edge="1">
          <mxGeometry width="50" height="50" relative="1" as="geometry">
            <mxPoint x="260" y="920" as="sourcePoint" />
            <mxPoint x="290" y="910" as="targetPoint" />
            <Array as="points">
              <mxPoint x="270" y="920" />
            </Array>
          </mxGeometry>
        </mxCell>
        <mxCell id="GEG1RvF2grD1vGv5HLdB-14" value="" style="endArrow=none;html=1;rounded=0;" parent="1" edge="1">
          <mxGeometry width="50" height="50" relative="1" as="geometry">
            <mxPoint x="290" y="920" as="sourcePoint" />
            <mxPoint x="300" y="920" as="targetPoint" />
          </mxGeometry>
        </mxCell>
        <mxCell id="GEG1RvF2grD1vGv5HLdB-17" value="15V" style="text;html=1;align=center;verticalAlign=middle;whiteSpace=wrap;rounded=0;fontSize=16;fontColor=#000000;" parent="1" vertex="1">
          <mxGeometry x="307.5" y="930" width="50" as="geometry" />
        </mxCell>
        <mxCell id="GEG1RvF2grD1vGv5HLdB-18" value="18V" style="text;html=1;align=center;verticalAlign=middle;whiteSpace=wrap;rounded=0;fontSize=16;fontColor=#000000;" parent="1" vertex="1">
          <mxGeometry x="410" y="920" width="40" height="20" as="geometry" />
        </mxCell>
        <mxCell id="GEG1RvF2grD1vGv5HLdB-22" value="" style="rounded=1;whiteSpace=wrap;html=1;" parent="1" vertex="1">
          <mxGeometry x="340" y="820" width="60" height="30" as="geometry" />
        </mxCell>
        <mxCell id="GEG1RvF2grD1vGv5HLdB-21" value="" style="rounded=1;whiteSpace=wrap;html=1;" parent="1" vertex="1">
          <mxGeometry x="345" y="825" width="60" height="30" as="geometry" />
        </mxCell>
        <mxCell id="GEG1RvF2grD1vGv5HLdB-20" value="LDO" style="rounded=1;whiteSpace=wrap;html=1;" parent="1" vertex="1">
          <mxGeometry x="350" y="830" width="60" height="30" as="geometry" />
        </mxCell>
        <mxCell id="GEG1RvF2grD1vGv5HLdB-24" value="" style="endArrow=none;html=1;rounded=0;" parent="1" edge="1">
          <mxGeometry width="50" height="50" relative="1" as="geometry">
            <mxPoint x="480" y="920" as="sourcePoint" />
            <mxPoint x="490" y="920" as="targetPoint" />
          </mxGeometry>
        </mxCell>
        <mxCell id="GEG1RvF2grD1vGv5HLdB-25" value="" style="endArrow=none;html=1;rounded=0;" parent="1" edge="1">
          <mxGeometry width="50" height="50" relative="1" as="geometry">
            <mxPoint x="485" y="915" as="sourcePoint" />
            <mxPoint x="485" y="925" as="targetPoint" />
            <Array as="points">
              <mxPoint x="500" y="915" />
              <mxPoint x="500" y="925" />
            </Array>
          </mxGeometry>
        </mxCell>
        <mxCell id="GEG1RvF2grD1vGv5HLdB-27" value="アンビリカル&lt;br&gt;ケーブル" style="text;html=1;strokeColor=none;fillColor=none;align=center;verticalAlign=middle;whiteSpace=wrap;rounded=0;" parent="1" vertex="1">
          <mxGeometry x="452.5" y="930" width="80" height="40" as="geometry" />
        </mxCell>
        <mxCell id="GEG1RvF2grD1vGv5HLdB-29" value="パワーバス" style="text;html=1;align=center;verticalAlign=middle;whiteSpace=wrap;rounded=0;fontSize=16;fontColor=#000000;" parent="1" vertex="1">
          <mxGeometry x="232.5" y="740" width="112.5" height="20" as="geometry" />
        </mxCell>
        <mxCell id="GEG1RvF2grD1vGv5HLdB-30" value="" style="endArrow=none;html=1;rounded=0;fillColor=#d5e8d4;strokeColor=#82b366;strokeWidth=5;" parent="1" edge="1">
          <mxGeometry width="50" height="50" relative="1" as="geometry">
            <mxPoint x="175" y="740" as="sourcePoint" />
            <mxPoint x="585" y="740" as="targetPoint" />
          </mxGeometry>
        </mxCell>
        <mxCell id="GEG1RvF2grD1vGv5HLdB-31" value="12V" style="text;html=1;align=center;verticalAlign=middle;whiteSpace=wrap;rounded=0;fontSize=16;fontColor=#000000;" parent="1" vertex="1">
          <mxGeometry x="340" y="740" width="40" height="20" as="geometry" />
        </mxCell>
        <mxCell id="GEG1RvF2grD1vGv5HLdB-35" value="" style="endArrow=none;html=1;rounded=0;strokeWidth=5;fillColor=#d5e8d4;strokeColor=#82b366;" parent="1" edge="1">
          <mxGeometry width="50" height="50" relative="1" as="geometry">
            <mxPoint x="380" y="785.12" as="sourcePoint" />
            <mxPoint x="400" y="784.88" as="targetPoint" />
          </mxGeometry>
        </mxCell>
        <mxCell id="GEG1RvF2grD1vGv5HLdB-37" value="プール" style="text;html=1;align=center;verticalAlign=middle;whiteSpace=wrap;rounded=0;fontSize=16;fontColor=#000000;" parent="1" vertex="1">
          <mxGeometry x="380" y="870" width="60" height="20" as="geometry" />
        </mxCell>
        <mxCell id="GEG1RvF2grD1vGv5HLdB-38" value="" style="rounded=0;whiteSpace=wrap;html=1;" parent="1" vertex="1">
          <mxGeometry x="340" y="680" width="80" height="40" as="geometry" />
        </mxCell>
        <mxCell id="GEG1RvF2grD1vGv5HLdB-40" value="" style="endArrow=none;html=1;rounded=0;fillColor=#d5e8d4;strokeColor=#82b366;strokeWidth=3;" parent="1" edge="1">
          <mxGeometry width="50" height="50" relative="1" as="geometry">
            <mxPoint x="380" y="740" as="sourcePoint" />
            <mxPoint x="380" y="740" as="targetPoint" />
            <Array as="points">
              <mxPoint x="380" y="710" />
            </Array>
          </mxGeometry>
        </mxCell>
        <mxCell id="GEG1RvF2grD1vGv5HLdB-39" value="MPU" style="rounded=0;whiteSpace=wrap;html=1;" parent="1" vertex="1">
          <mxGeometry x="360" y="690" width="40" height="20" as="geometry" />
        </mxCell>
        <mxCell id="GEG1RvF2grD1vGv5HLdB-61" value="UPS" style="rounded=1;whiteSpace=wrap;html=1;" parent="1" vertex="1">
          <mxGeometry x="400" y="770" width="65" height="30" as="geometry" />
        </mxCell>
        <mxCell id="GEG1RvF2grD1vGv5HLdB-64" value="" style="endArrow=none;html=1;rounded=0;fillColor=#d5e8d4;strokeColor=#82b366;strokeWidth=3;" parent="1" edge="1">
          <mxGeometry width="50" height="50" relative="1" as="geometry">
            <mxPoint x="240" y="740" as="sourcePoint" />
            <mxPoint x="220" y="700" as="targetPoint" />
            <Array as="points">
              <mxPoint x="240" y="700" />
            </Array>
          </mxGeometry>
        </mxCell>
        <mxCell id="GEG1RvF2grD1vGv5HLdB-65" value="MPU" style="rounded=0;whiteSpace=wrap;html=1;" parent="1" vertex="1">
          <mxGeometry x="180" y="690" width="40" height="20" as="geometry" />
        </mxCell>
        <mxCell id="GEG1RvF2grD1vGv5HLdB-67" value="" style="endArrow=none;html=1;rounded=0;entryX=0;entryY=0.5;entryDx=0;entryDy=0;" parent="1" edge="1">
          <mxGeometry width="50" height="50" relative="1" as="geometry">
            <mxPoint x="200" y="690" as="sourcePoint" />
            <mxPoint x="220" y="670" as="targetPoint" />
            <Array as="points">
              <mxPoint x="200" y="670" />
            </Array>
          </mxGeometry>
        </mxCell>
        <mxCell id="GEG1RvF2grD1vGv5HLdB-69" value="アクチュエータ" style="rounded=0;whiteSpace=wrap;html=1;" parent="1" vertex="1">
          <mxGeometry x="190.63" y="620" width="100" height="20" as="geometry" />
        </mxCell>
        <mxCell id="GEG1RvF2grD1vGv5HLdB-70" value="" style="endArrow=none;html=1;rounded=0;fillColor=#d5e8d4;strokeColor=#82b366;strokeWidth=3;" parent="1" edge="1">
          <mxGeometry width="50" height="50" relative="1" as="geometry">
            <mxPoint x="520" y="740" as="sourcePoint" />
            <mxPoint x="520" y="710" as="targetPoint" />
            <Array as="points">
              <mxPoint x="520" y="740" />
            </Array>
          </mxGeometry>
        </mxCell>
        <mxCell id="GEG1RvF2grD1vGv5HLdB-73" value="" style="endArrow=none;html=1;rounded=0;fillColor=#d5e8d4;strokeColor=#82b366;strokeWidth=3;" parent="1" target="GEG1RvF2grD1vGv5HLdB-72" edge="1">
          <mxGeometry width="50" height="50" relative="1" as="geometry">
            <mxPoint x="240" y="700" as="sourcePoint" />
            <mxPoint x="240" y="640" as="targetPoint" />
          </mxGeometry>
        </mxCell>
        <mxCell id="GEG1RvF2grD1vGv5HLdB-72" value="SSR" style="rounded=1;whiteSpace=wrap;html=1;" parent="1" vertex="1">
          <mxGeometry x="220" y="660" width="40" height="20" as="geometry" />
        </mxCell>
        <mxCell id="GEG1RvF2grD1vGv5HLdB-75" value="" style="endArrow=none;html=1;rounded=0;fillColor=#d5e8d4;strokeColor=#82b366;strokeWidth=3;" parent="1" edge="1">
          <mxGeometry width="50" height="50" relative="1" as="geometry">
            <mxPoint x="519.8299999999999" y="690" as="sourcePoint" />
            <mxPoint x="520" y="670" as="targetPoint" />
            <Array as="points">
              <mxPoint x="519.8299999999999" y="690" />
            </Array>
          </mxGeometry>
        </mxCell>
        <mxCell id="GEG1RvF2grD1vGv5HLdB-71" value="MPU" style="rounded=0;whiteSpace=wrap;html=1;" parent="1" vertex="1">
          <mxGeometry x="500" y="650" width="40" height="20" as="geometry" />
        </mxCell>
        <mxCell id="GEG1RvF2grD1vGv5HLdB-74" value="LDO" style="rounded=1;whiteSpace=wrap;html=1;" parent="1" vertex="1">
          <mxGeometry x="500" y="690" width="40" height="20" as="geometry" />
        </mxCell>
        <mxCell id="GEG1RvF2grD1vGv5HLdB-80" value="5V" style="text;html=1;align=center;verticalAlign=middle;whiteSpace=wrap;rounded=0;fontSize=10;fontColor=#000000;" parent="1" vertex="1">
          <mxGeometry x="510" y="670" width="40" height="20" as="geometry" />
        </mxCell>
        <mxCell id="TMUHV8_cBz5XogAsObJO-1" value="・フライトモジュール" style="text;html=1;strokeColor=none;fillColor=none;align=left;verticalAlign=bottom;whiteSpace=wrap;rounded=0;fontSize=10;labelPosition=right;verticalLabelPosition=top;" vertex="1" parent="1">
          <mxGeometry x="42.5" y="610" width="127.5" height="20" as="geometry" />
        </mxCell>
        <mxCell id="TMUHV8_cBz5XogAsObJO-2" value="・計測モジュール&lt;br&gt;・THR制御モジュール" style="text;html=1;strokeColor=none;fillColor=none;align=left;verticalAlign=bottom;whiteSpace=wrap;rounded=0;fontSize=10;labelPosition=right;verticalLabelPosition=top;" vertex="1" parent="1">
          <mxGeometry x="212.5" y="680" width="127.5" height="30" as="geometry" />
        </mxCell>
        <mxCell id="TMUHV8_cBz5XogAsObJO-3" value="・ミッションモジュール&lt;br style=&quot;font-size: 10px;&quot;&gt;・通信モジュール&lt;br style=&quot;font-size: 10px;&quot;&gt;・搭載カメラ" style="text;html=1;strokeColor=none;fillColor=none;align=left;verticalAlign=bottom;whiteSpace=wrap;rounded=0;fontSize=10;labelPosition=right;verticalLabelPosition=top;" vertex="1" parent="1">
          <mxGeometry x="349" y="640" width="130" height="30" as="geometry" />
        </mxCell>
      </root>
    </mxGraphModel>
  </diagram>
</mxfile>
